<svg xmlns="http://www.w3.org/2000/svg" xmlns:xlink="http://www.w3.org/1999/xlink" version="1.1" viewBox="0 0 3220 2562" style="background: #ffffff"><defs joint-selector="defs"></defs><g joint-selector="layers"  transform="matrix(1,0,0,1,0,0)"><g ></g><g ><!--z-index:0--><!--z-index:1--><!--z-index:2--><!--z-index:3--><!--z-index:4--><!--z-index:5--><!--z-index:6--><!--z-index:7--><!--z-index:8--><!--z-index:9--><!--z-index:10--><!--z-index:11--><!--z-index:12--><!--z-index:13--><!--z-index:14--><!--z-index:15--><!--z-index:16--><!--z-index:17--><!--z-index:18--><!--z-index:19--><!--z-index:20--><!--z-index:21--><g   id="j_451"  transform="translate(20,2525.6)"><g id="v-6603"><text  id="v-6604" font-size="22px" xml:space="preserve" y="0.8em" font-weight="normal" text-anchor="start" fill="#aaaaaa" pointer-events="none" display="block" font-family="Arial"><tspan dy="0"  display="block">Tuesday, March 10, 2026 at 11:36 PM Moscow Standard Time</tspan></text></g></g><!--z-index:22--><g   id="j_450"  transform="translate(20,2499.2)"><g id="v-6601"><text  id="v-6602" font-size="22px" xml:space="preserve" y="0.8em" font-weight="normal" text-anchor="start" fill="#aaaaaa" pointer-events="none" display="block" font-family="Arial"><tspan dy="0"  display="block">Create delivery scenario</tspan></text></g></g><!--z-index:23--><g   id="j_449"  transform="translate(20,2456)"><g id="v-6599"><text  id="v-6600" font-size="36px" xml:space="preserve" y="0.8em" font-weight="normal" text-anchor="start" fill="#000000" pointer-events="none" display="block" font-family="Arial"><tspan dy="0"  display="block">Dynamic Diagram - Creating a Delivery</tspan></text></g></g><!--z-index:24--><g   id="j_452"  transform="translate(208,1229)" style=""><g  id="v-6608" style="opacity: 1;"><rect  x="0" y="160" width="400" height="240" rx="70" id="v-6610" stroke="#073b6f" stroke-width="2" pointer-events="visiblePainted" fill="#08427b" style="fill: rgb(8, 66, 123); stroke: rgb(7, 59, 111);"></rect><circle  cx="200" cy="88.88888888888889" r="88.88888888888889" id="v-6609" stroke="#073b6f" stroke-width="2" pointer-events="visiblePainted" fill="#08427b" style="fill: rgb(8, 66, 123); stroke: rgb(7, 59, 111);"></circle><line  x1="80" y1="266.6666666666667" x2="80" y2="400" id="v-6616" stroke="#073b6f" stroke-width="2" style="stroke: rgb(7, 59, 111);"></line><line  x1="320" y1="266.6666666666667" x2="320" y2="400" id="v-6617" stroke="#073b6f" stroke-width="2" style="stroke: rgb(7, 59, 111);"></line><text  id="v-6611" font-size="34" xml:space="preserve" y="0.8em" font-weight="bold" text-anchor="middle" pointer-events="visible" font-family="Arial" fill="#ffffff" transform="matrix(1,0,0,1,200,218.1)" style="fill: rgb(255, 255, 255);"><tspan dy="0" >User</tspan></text><text  id="v-6612" font-size="17" xml:space="preserve" y="0.8em" text-anchor="middle" font-family="Arial" fill="#ffffff" transform="matrix(1,0,0,1,200,258.9)" style="fill: rgb(255, 255, 255);"><tspan dy="0" >[Person]</tspan></text><text  id="v-6613" font-size="24" xml:space="preserve" y="0.8em" text-anchor="middle" font-family="Arial" fill="#ffffff" transform="matrix(1,0,0,1,200,289.3)" style="fill: rgb(255, 255, 255);"><tspan dy="0" >Customer who sends and receives</tspan><tspan dy="1.2em" x="0" >parcels</tspan></text><g  id="v-6614" font-weight="normal" text-anchor="middle" color="#ffffff" transform="matrix(1,0,0,1,200,368)" display="none" style="fill: rgb(255, 255, 255);"><g ></g><g ></g><g ></g><g ></g></g><image  id="v-6615"></image></g></g><!--z-index:25--><g   id="j_453"  transform="translate(2458,2037)" style=""><g  id="v-6621" style="opacity: 1;"><rect  id="v-6622" rx="20" ry="20" stroke="#0f5eaa" stroke-width="2" pointer-events="visiblePainted" fill="#1168bd" width="450" height="300" style="fill: rgb(17, 104, 189); stroke: rgb(15, 94, 170);"></rect><text  id="v-6623" font-size="34" xml:space="preserve" y="0.8em" font-weight="bold" text-anchor="middle" pointer-events="visible" font-family="Arial" fill="#ffffff" transform="matrix(1,0,0,1,225,88.1)" style="fill: rgb(255, 255, 255);"><tspan dy="0" >Email Service</tspan></text><text  id="v-6624" font-size="17" xml:space="preserve" y="0.8em" text-anchor="middle" font-family="Arial" fill="#ffffff" transform="matrix(1,0,0,1,225,128.9)" style="fill: rgb(255, 255, 255);"><tspan dy="0" >[Software System]</tspan></text><text  id="v-6625" font-size="24" xml:space="preserve" y="0.8em" text-anchor="middle" font-family="Arial" fill="#ffffff" transform="matrix(1,0,0,1,225,159.3)" style="fill: rgb(255, 255, 255);"><tspan dy="0" >External system used to send email</tspan><tspan dy="1.2em" x="0" >notifications</tspan></text><g  id="v-6626" color="#ffffff" transform="matrix(1,0,0,1,0,268)" display="none" style="fill: rgb(255, 255, 255);"><g ></g><g ></g><g ></g><g ></g></g><image  id="v-6627"></image></g></g><!--z-index:26--><g   id="j_455"  transform="translate(938,309)" style=""><g id="v-6638"><rect  id="v-6639" width="1990" height="1611" rx="0" ry="0" fill="#ffffff" stroke="#1168bd" stroke-width="1" stroke-dasharray="20,20" pointer-events="none"></rect><text  id="v-6640" font-size="24px" xml:space="preserve" y="1572" font-weight="normal" fill="#1168bd" text-anchor="start" pointer-events="visible" font-family="Arial" transform="matrix(1,0,0,1,15,0)"><tspan dy="0" >Delivery Service</tspan></text><text  id="v-6641" font-size="17px" xml:space="preserve" y="1596" font-weight="normal" fill="#1168bd" text-anchor="start" pointer-events="visible" font-family="Arial" transform="matrix(1,0,0,1,15,0)"><tspan dy="0" >[Software System]</tspan></text><image  id="v-6642" pointer-events="visible"></image></g></g><!--z-index:27--><g   id="j_454"  transform="translate(958,1229)" style=""><g  id="v-6631" style="opacity: 1;"><rect  id="v-6632" rx="20" ry="20" stroke="#3c7fc0" stroke-width="2" pointer-events="visiblePainted" fill="#438dd5" width="450" height="300" style="fill: rgb(67, 141, 213); stroke: rgb(60, 127, 192);"></rect><text  id="v-6633" font-size="34" xml:space="preserve" y="0.8em" font-weight="bold" text-anchor="middle" pointer-events="visible" font-family="Arial" fill="#ffffff" transform="matrix(1,0,0,1,225,73.7)" style="fill: rgb(255, 255, 255);"><tspan dy="0" >API Gateway</tspan></text><text  id="v-6634" font-size="17" xml:space="preserve" y="0.8em" text-anchor="middle" font-family="Arial" fill="#ffffff" transform="matrix(1,0,0,1,225,114.5)" style="fill: rgb(255, 255, 255);"><tspan dy="0" >[Container: C++ (userver)]</tspan></text><text  id="v-6635" font-size="24" xml:space="preserve" y="0.8em" text-anchor="middle" font-family="Arial" fill="#ffffff" transform="matrix(1,0,0,1,225,144.9)" style="fill: rgb(255, 255, 255);"><tspan dy="0" >Main entry point for clients. Handles</tspan><tspan dy="1.2em" x="0" >HTTP requests and routes them to</tspan><tspan dy="1.2em" x="0" >services.</tspan></text><g  id="v-6636" color="#ffffff" transform="matrix(1,0,0,1,0,268)" display="none" style="fill: rgb(255, 255, 255);"><g ></g><g ></g><g ></g><g ></g></g><image  id="v-6637"></image></g></g><!--z-index:28--><g   id="j_456"  transform="translate(1708,1529)" style=""><g  id="v-6646" style="opacity: 1;"><rect  id="v-6647" rx="20" ry="20" stroke="#3c7fc0" stroke-width="2" pointer-events="visiblePainted" fill="#438dd5" width="450" height="300" style="fill: rgb(67, 141, 213); stroke: rgb(60, 127, 192);"></rect><text  id="v-6648" font-size="34" xml:space="preserve" y="0.8em" font-weight="bold" text-anchor="middle" pointer-events="visible" font-family="Arial" fill="#ffffff" transform="matrix(1,0,0,1,225,88.1)" style="fill: rgb(255, 255, 255);"><tspan dy="0" >User Service</tspan></text><text  id="v-6649" font-size="17" xml:space="preserve" y="0.8em" text-anchor="middle" font-family="Arial" fill="#ffffff" transform="matrix(1,0,0,1,225,128.9)" style="fill: rgb(255, 255, 255);"><tspan dy="0" >[Container: C++ (userver)]</tspan></text><text  id="v-6650" font-size="24" xml:space="preserve" y="0.8em" text-anchor="middle" font-family="Arial" fill="#ffffff" transform="matrix(1,0,0,1,225,159.3)" style="fill: rgb(255, 255, 255);"><tspan dy="0" >Handles user registration and user</tspan><tspan dy="1.2em" x="0" >search.</tspan></text><g  id="v-6651" color="#ffffff" transform="matrix(1,0,0,1,0,268)" display="none" style="fill: rgb(255, 255, 255);"><g ></g><g ></g><g ></g><g ></g></g><image  id="v-6652"></image></g></g><!--z-index:29--><g   id="j_457"  transform="translate(1708,929)" style=""><g  id="v-6656" style="opacity: 1;"><rect  id="v-6657" rx="20" ry="20" stroke="#3c7fc0" stroke-width="2" pointer-events="visiblePainted" fill="#438dd5" width="450" height="300" style="fill: rgb(67, 141, 213); stroke: rgb(60, 127, 192);"></rect><text  id="v-6658" font-size="34" xml:space="preserve" y="0.8em" font-weight="bold" text-anchor="middle" pointer-events="visible" font-family="Arial" fill="#ffffff" transform="matrix(1,0,0,1,225,102.5)" style="fill: rgb(255, 255, 255);"><tspan dy="0" >Parcel Service</tspan></text><text  id="v-6659" font-size="17" xml:space="preserve" y="0.8em" text-anchor="middle" font-family="Arial" fill="#ffffff" transform="matrix(1,0,0,1,225,143.3)" style="fill: rgb(255, 255, 255);"><tspan dy="0" >[Container: C++ (userver)]</tspan></text><text  id="v-6660" font-size="24" xml:space="preserve" y="0.8em" text-anchor="middle" font-family="Arial" fill="#ffffff" transform="matrix(1,0,0,1,225,173.7)" style="fill: rgb(255, 255, 255);"><tspan dy="0" >Handles parcel creation and retrieval.</tspan></text><g  id="v-6661" color="#ffffff" transform="matrix(1,0,0,1,0,268)" display="none" style="fill: rgb(255, 255, 255);"><g ></g><g ></g><g ></g><g ></g></g><image  id="v-6662"></image></g></g><!--z-index:30--><g   id="j_458"  transform="translate(1708,329)" style=""><g  id="v-6669" style="opacity: 1;"><rect  id="v-6670" rx="20" ry="20" stroke="#3c7fc0" stroke-width="2" pointer-events="visiblePainted" fill="#438dd5" width="450" height="300" style="fill: rgb(67, 141, 213); stroke: rgb(60, 127, 192);"></rect><text  id="v-6671" font-size="34" xml:space="preserve" y="0.8em" font-weight="bold" text-anchor="middle" pointer-events="visible" font-family="Arial" fill="#ffffff" transform="matrix(1,0,0,1,225,67.7)" style="fill: rgb(255, 255, 255);"><tspan dy="0" >Delivery Management</tspan><tspan dy="1.2em" x="0" >Service</tspan></text><text  id="v-6672" font-size="17" xml:space="preserve" y="0.8em" text-anchor="middle" font-family="Arial" fill="#ffffff" transform="matrix(1,0,0,1,225,149.3)" style="fill: rgb(255, 255, 255);"><tspan dy="0" >[Container: C++ (userver)]</tspan></text><text  id="v-6673" font-size="24" xml:space="preserve" y="0.8em" text-anchor="middle" font-family="Arial" fill="#ffffff" transform="matrix(1,0,0,1,225,179.7)" style="fill: rgb(255, 255, 255);"><tspan dy="0" >Handles creation and management of</tspan><tspan dy="1.2em" x="0" >deliveries.</tspan></text><g  id="v-6674" color="#ffffff" transform="matrix(1,0,0,1,0,268)" display="none" style="fill: rgb(255, 255, 255);"><g ></g><g ></g><g ></g><g ></g></g><image  id="v-6675"></image></g></g><!--z-index:31--><g   id="j_459"  transform="translate(2458,929)" style=""><g  id="v-6682" style="opacity: 1;"><rect  id="v-6683" rx="20" ry="20" stroke="#3c7fc0" stroke-width="2" pointer-events="visiblePainted" fill="#438dd5" width="450" height="300" style="fill: rgb(67, 141, 213); stroke: rgb(60, 127, 192);"></rect><text  id="v-6684" font-size="34" xml:space="preserve" y="0.8em" font-weight="bold" text-anchor="middle" pointer-events="visible" font-family="Arial" fill="#ffffff" transform="matrix(1,0,0,1,225,102.5)" style="fill: rgb(255, 255, 255);"><tspan dy="0" >Relational Database</tspan></text><text  id="v-6685" font-size="17" xml:space="preserve" y="0.8em" text-anchor="middle" font-family="Arial" fill="#ffffff" transform="matrix(1,0,0,1,225,143.3)" style="fill: rgb(255, 255, 255);"><tspan dy="0" >[Container: PostgreSQL]</tspan></text><text  id="v-6686" font-size="24" xml:space="preserve" y="0.8em" text-anchor="middle" font-family="Arial" fill="#ffffff" transform="matrix(1,0,0,1,225,173.7)" style="fill: rgb(255, 255, 255);"><tspan dy="0" >Stores users, parcels and deliveries.</tspan></text><g  id="v-6687" color="#ffffff" transform="matrix(1,0,0,1,0,268)" display="none" style="fill: rgb(255, 255, 255);"><g ></g><g ></g><g ></g><g ></g></g><image  id="v-6688"></image></g></g><!--z-index:32--><g   id="j_460"  transform="translate(2458,329)" style=""><g  id="v-6695" style="opacity: 1;"><rect  id="v-6696" rx="20" ry="20" stroke="#3c7fc0" stroke-width="2" pointer-events="visiblePainted" fill="#438dd5" width="450" height="300" style="fill: rgb(67, 141, 213); stroke: rgb(60, 127, 192);"></rect><text  id="v-6697" font-size="34" xml:space="preserve" y="0.8em" font-weight="bold" text-anchor="middle" pointer-events="visible" font-family="Arial" fill="#ffffff" transform="matrix(1,0,0,1,225,88.1)" style="fill: rgb(255, 255, 255);"><tspan dy="0" >Tracking Database</tspan></text><text  id="v-6698" font-size="17" xml:space="preserve" y="0.8em" text-anchor="middle" font-family="Arial" fill="#ffffff" transform="matrix(1,0,0,1,225,128.9)" style="fill: rgb(255, 255, 255);"><tspan dy="0" >[Container: MongoDB]</tspan></text><text  id="v-6699" font-size="24" xml:space="preserve" y="0.8em" text-anchor="middle" font-family="Arial" fill="#ffffff" transform="matrix(1,0,0,1,225,159.3)" style="fill: rgb(255, 255, 255);"><tspan dy="0" >Stores delivery tracking events and</tspan><tspan dy="1.2em" x="0" >logs.</tspan></text><g  id="v-6700" color="#ffffff" transform="matrix(1,0,0,1,0,268)" display="none" style="fill: rgb(255, 255, 255);"><g ></g><g ></g><g ></g><g ></g></g><image  id="v-6701"></image></g></g><!--z-index:33--><g   id="j_461" ><path  stroke="#707070" d="M 608 1416 L 958 1394" id="v-6717" stroke-width="2" stroke-dasharray="30 30" fill="none"></path><path  fill="black" stroke="black" d="M 0 0 0 0" transform="matrix(0.9979253204907179,-0.06438209940269021,0.06438209940269021,0.9979253204907179,608,1416.0968017578125)"></path><path  fill="#707070" stroke="#707070" d="M 20 0 L 0 10 L 20 20 z" id="v-6719" transform="matrix(-0.9979253033446924,0.06438236516627595,-0.06438236516627595,-0.9979253033446924,958.6438286382347,1403.4953414911593)"></path><path  d="M 608 1416 L 958 1394" id="v-6718" fill="none" style="pointer-events: visiblepainted; cursor: auto;"></path><g ><g id="v-6708"  label-idx="0" cursor="move" transform="matrix(1,0,0,1,783,1405)"><rect joint-selector="rect" id="v-6712" fill="#ffffff" rx="3" ry="3" pointer-events="none" width="211.56454467773438" height="25.898119926452637" transform="matrix(1,0,0,1,-103.2,-13)"></rect><text joint-selector="text" id="v-6711" font-size="24px" xml:space="preserve" y="0.8em" fill="#707070" text-anchor="middle" pointer-events="none" font-family="Arial" font-weight="normal" transform="matrix(1,0,0,1,0,-10.6)"><tspan dy="0" >1: POST /deliveries</tspan></text></g><g id="v-6709"  label-idx="1" cursor="move" transform="matrix(1,0,0,1,783,1431.4000244140625)"><rect joint-selector="rect" id="v-6714" fill="#ffffff" rx="3" ry="3" pointer-events="none" width="68.94823455810547" height="21.581767082214355" transform="matrix(1,0,0,1,-32.5,-10.8)"></rect><text joint-selector="text" id="v-6713" font-size="17px" xml:space="preserve" y="0.8em" fill="#707070" text-anchor="middle" pointer-events="none" font-family="Arial" font-weight="normal" transform="matrix(1,0,0,1,0,-7.1)"><tspan dy="0" >[HTTPS]</tspan></text></g><g id="v-6710"  label-idx="2" cursor="move" transform="matrix(1,0,0,1,773,1439.800048828125)"><rect joint-selector="rect" id="v-6716" fill="#ffffff" rx="3" ry="3"  width="0" height="0" transform="matrix(1,0,0,1,0,0)" display="none"></rect><text joint-selector="text" id="v-6715" fill="#000000" font-size="14" text-anchor="middle" pointer-events="none"></text></g></g><g  display="none" style="display: none;"></g><g  id="v-6721" display="none"><g  id="v-6706"><path  end="source" d="M 26 0 L 0 13 L 26 26 z"></path></g><g  id="v-6707"><path  end="target" d="M 26 0 L 0 13 L 26 26 z"></path></g></g><g  id="v-6720" display="none"><g  id="v-6705" transform="translate(647.9212129819559, 1413.4906666125628) "><g  event="remove"><circle r="11"></circle><path transform="scale(.8) translate(-16, -16)" d="M24.778,21.419 19.276,15.917 24.777,10.415 21.949,7.585 16.447,13.087 10.945,7.585 8.117,10.415 13.618,15.917 8.116,21.419 10.946,24.248 16.447,18.746 21.948,24.248z"></path><title>Remove link.</title></g><g  event="link:options"><circle r="11" transform="translate(25)"></circle><path fill="white" transform="scale(.55) translate(29, -16)" d="M31.229,17.736c0.064-0.571,0.104-1.148,0.104-1.736s-0.04-1.166-0.104-1.737l-4.377-1.557c-0.218-0.716-0.504-1.401-0.851-2.05l1.993-4.192c-0.725-0.91-1.549-1.734-2.458-2.459l-4.193,1.994c-0.647-0.347-1.334-0.632-2.049-0.849l-1.558-4.378C17.165,0.708,16.588,0.667,16,0.667s-1.166,0.041-1.737,0.105L12.707,5.15c-0.716,0.217-1.401,0.502-2.05,0.849L6.464,4.005C5.554,4.73,4.73,5.554,4.005,6.464l1.994,4.192c-0.347,0.648-0.632,1.334-0.849,2.05l-4.378,1.557C0.708,14.834,0.667,15.412,0.667,16s0.041,1.165,0.105,1.736l4.378,1.558c0.217,0.715,0.502,1.401,0.849,2.049l-1.994,4.193c0.725,0.909,1.549,1.733,2.459,2.458l4.192-1.993c0.648,0.347,1.334,0.633,2.05,0.851l1.557,4.377c0.571,0.064,1.148,0.104,1.737,0.104c0.588,0,1.165-0.04,1.736-0.104l1.558-4.377c0.715-0.218,1.399-0.504,2.049-0.851l4.193,1.993c0.909-0.725,1.733-1.549,2.458-2.458l-1.993-4.193c0.347-0.647,0.633-1.334,0.851-2.049L31.229,17.736zM16,20.871c-2.69,0-4.872-2.182-4.872-4.871c0-2.69,2.182-4.872,4.872-4.872c2.689,0,4.871,2.182,4.871,4.872C20.871,18.689,18.689,20.871,16,20.871z"></path><title>Link options.</title></g></g></g></g><!--z-index:34--><g   id="j_462" ><path  stroke="#707070" d="M 1349 1529 L 1495 1662 C 1499.8609323645896 1666.1810024218591 1505.5275990312562 1668.5143357551924 1512 1669 L 1708 1673" id="v-6737" stroke-width="2" stroke-dasharray="30 30" fill="none"></path><path  fill="black" stroke="black" d="M 0 0 0 0" transform="matrix(0.7410866315567887,0.6714094164724028,-0.6714094164724028,0.7410866315567887,1348.566650390625,1529)"></path><path  fill="#707070" stroke="#707070" d="M 20 0 L 0 10 L 20 20 z" id="v-6739" transform="matrix(-0.9996899175950293,-0.024901177860563894,0.024901177860563894,-0.9996899175950293,1707.750939155157,1683.392395329556)"></path><path  d="M 1349 1529 L 1495 1662 C 1499.8609323645896 1666.1810024218591 1505.5275990312562 1668.5143357551924 1512 1669 L 1708 1673" id="v-6738" fill="none" style="pointer-events: visiblepainted; cursor: auto;"></path><g ><g id="v-6728"  label-idx="0" cursor="move" transform="matrix(1,0,0,1,1502.2681884765625,1666.618408203125)"><rect joint-selector="rect" id="v-6732" fill="#ffffff" rx="3" ry="3" pointer-events="none" width="200.9477996826172" height="25.898119926452637" transform="matrix(1,0,0,1,-100.2,-13)"></rect><text joint-selector="text" id="v-6731" font-size="24px" xml:space="preserve" y="0.8em" fill="#707070" text-anchor="middle" pointer-events="none" font-family="Arial" font-weight="normal" transform="matrix(1,0,0,1,0,-10.6)"><tspan dy="0" >2: Validate sender</tspan></text></g><g id="v-6729"  label-idx="1" cursor="move" transform="matrix(1,0,0,1,1502.2681884765625,1693.018310546875)"><rect joint-selector="rect" id="v-6734" fill="#ffffff" rx="3" ry="3" pointer-events="none" width="118.9019775390625" height="21.581767082214355" transform="matrix(1,0,0,1,-57.5,-10.8)"></rect><text joint-selector="text" id="v-6733" font-size="17px" xml:space="preserve" y="0.8em" fill="#707070" text-anchor="middle" pointer-events="none" font-family="Arial" font-weight="normal" transform="matrix(1,0,0,1,0,-7.1)"><tspan dy="0" >[HTTPS/REST]</tspan></text></g><g id="v-6730"  label-idx="2" cursor="move" transform="matrix(1,0,0,1,1492.2681884765625,1701.4183349609375)"><rect joint-selector="rect" id="v-6736" fill="#ffffff" rx="3" ry="3"  width="0" height="0" transform="matrix(1,0,0,1,0,0)" display="none"></rect><text joint-selector="text" id="v-6735" fill="#000000" font-size="14" text-anchor="middle" pointer-events="none"></text></g></g><g  display="none" style="display: none;"><g  transform="translate(1502.2913985468845, 1668.2715036327888)" id="v-6863"><circle  idx="0" r="10"></circle><path  idx="0" d="M16,5.333c-7.732,0-14,4.701-14,10.5c0,1.982,0.741,3.833,2.016,5.414L2,25.667l5.613-1.441c2.339,1.317,5.237,2.107,8.387,2.107c7.732,0,14-4.701,14-10.5C30,10.034,23.732,5.333,16,5.333z" transform="translate(5, -33)"></path><path  idx="0" transform="scale(.8) translate(9.5, -37)" d="M24.778,21.419 19.276,15.917 24.777,10.415 21.949,7.585 16.447,13.087 10.945,7.585 8.117,10.415 13.618,15.917 8.116,21.419 10.946,24.248 16.447,18.746 21.948,24.248z"><title>Remove vertex.</title></path></g></g><g  id="v-6741" display="none"><g  id="v-6726"><path  end="source" d="M 26 0 L 0 13 L 26 26 z"></path></g><g  id="v-6727"><path  end="target" d="M 26 0 L 0 13 L 26 26 z"></path></g></g><g  id="v-6740" display="none"><g  id="v-6725" transform="translate(1378.570094060743, 1555.937140479992) "><g  event="remove"><circle r="11"></circle><path transform="scale(.8) translate(-16, -16)" d="M24.778,21.419 19.276,15.917 24.777,10.415 21.949,7.585 16.447,13.087 10.945,7.585 8.117,10.415 13.618,15.917 8.116,21.419 10.946,24.248 16.447,18.746 21.948,24.248z"></path><title>Remove link.</title></g><g  event="link:options"><circle r="11" transform="translate(25)"></circle><path fill="white" transform="scale(.55) translate(29, -16)" d="M31.229,17.736c0.064-0.571,0.104-1.148,0.104-1.736s-0.04-1.166-0.104-1.737l-4.377-1.557c-0.218-0.716-0.504-1.401-0.851-2.05l1.993-4.192c-0.725-0.91-1.549-1.734-2.458-2.459l-4.193,1.994c-0.647-0.347-1.334-0.632-2.049-0.849l-1.558-4.378C17.165,0.708,16.588,0.667,16,0.667s-1.166,0.041-1.737,0.105L12.707,5.15c-0.716,0.217-1.401,0.502-2.05,0.849L6.464,4.005C5.554,4.73,4.73,5.554,4.005,6.464l1.994,4.192c-0.347,0.648-0.632,1.334-0.849,2.05l-4.378,1.557C0.708,14.834,0.667,15.412,0.667,16s0.041,1.165,0.105,1.736l4.378,1.558c0.217,0.715,0.502,1.401,0.849,2.049l-1.994,4.193c0.725,0.909,1.549,1.733,2.459,2.458l4.192-1.993c0.648,0.347,1.334,0.633,2.05,0.851l1.557,4.377c0.571,0.064,1.148,0.104,1.737,0.104c0.588,0,1.165-0.04,1.736-0.104l1.558-4.377c0.715-0.218,1.399-0.504,2.049-0.851l4.193,1.993c0.909-0.725,1.733-1.549,2.458-2.458l-1.993-4.193c0.347-0.647,0.633-1.334,0.851-2.049L31.229,17.736zM16,20.871c-2.69,0-4.872-2.182-4.872-4.871c0-2.69,2.182-4.872,4.872-4.872c2.689,0,4.871,2.182,4.871,4.872C20.871,18.689,18.689,20.871,16,20.871z"></path><title>Link options.</title></g></g></g></g><!--z-index:35--><g   id="j_463" ><path  stroke="#707070" d="M 1408 1385 L 1604 1389 C 1610.4724009687434 1389.4856642448074 1616.1390676354101 1391.8189975781406 1621 1396 L 1767 1529" id="v-6757" stroke-width="2" stroke-dasharray="30 30" fill="none"></path><path  fill="black" stroke="black" d="M 0 0 0 0" transform="matrix(0.9996899165588433,0.02490121945955282,-0.02490121945955282,0.9996899165588433,1408,1384.6044921875)"></path><path  fill="#707070" stroke="#707070" d="M 20 0 L 0 10 L 20 20 z" id="v-6759" transform="matrix(-0.7410866762585728,-0.6714093671315744,0.6714093671315744,-0.7410866762585728,1760.71923402877,1536.4108491057764)"></path><path  d="M 1408 1385 L 1604 1389 C 1610.4724009687434 1389.4856642448074 1616.1390676354101 1391.8189975781406 1621 1396 L 1767 1529" id="v-6758" fill="none" style="pointer-events: visiblepainted; cursor: auto;"></path><g ><g id="v-6748"  label-idx="0" cursor="move" transform="matrix(1,0,0,1,1613.7318115234375,1391.381591796875)"><rect joint-selector="rect" id="v-6752" fill="#ffffff" rx="3" ry="3" pointer-events="none" width="212.92381286621094" height="25.898119926452637" transform="matrix(1,0,0,1,-106.2,-13)"></rect><text joint-selector="text" id="v-6751" font-size="24px" xml:space="preserve" y="0.8em" fill="#707070" text-anchor="middle" pointer-events="none" font-family="Arial" font-weight="normal" transform="matrix(1,0,0,1,0,-10.6)"><tspan dy="0" >3: Validate receiver</tspan></text></g><g id="v-6749"  label-idx="1" cursor="move" transform="matrix(1,0,0,1,1613.7318115234375,1417.7816162109375)"><rect joint-selector="rect" id="v-6754" fill="#ffffff" rx="3" ry="3" pointer-events="none" width="118.9019775390625" height="21.581767082214355" transform="matrix(1,0,0,1,-57.5,-10.8)"></rect><text joint-selector="text" id="v-6753" font-size="17px" xml:space="preserve" y="0.8em" fill="#707070" text-anchor="middle" pointer-events="none" font-family="Arial" font-weight="normal" transform="matrix(1,0,0,1,0,-7.1)"><tspan dy="0" >[HTTPS/REST]</tspan></text></g><g id="v-6750"  label-idx="2" cursor="move" transform="matrix(1,0,0,1,1603.7318115234375,1426.181640625)"><rect joint-selector="rect" id="v-6756" fill="#ffffff" rx="3" ry="3"  width="0" height="0" transform="matrix(1,0,0,1,0,0)" display="none"></rect><text joint-selector="text" id="v-6755" fill="#000000" font-size="14" text-anchor="middle" pointer-events="none"></text></g></g><g  display="none" style="display: none;"><g  transform="translate(1613.7086014531155, 1389.7284963672112)" id="v-6864"><circle  idx="0" r="10"></circle><path  idx="0" d="M16,5.333c-7.732,0-14,4.701-14,10.5c0,1.982,0.741,3.833,2.016,5.414L2,25.667l5.613-1.441c2.339,1.317,5.237,2.107,8.387,2.107c7.732,0,14-4.701,14-10.5C30,10.034,23.732,5.333,16,5.333z" transform="translate(5, -33)"></path><path  idx="0" transform="scale(.8) translate(9.5, -37)" d="M24.778,21.419 19.276,15.917 24.777,10.415 21.949,7.585 16.447,13.087 10.945,7.585 8.117,10.415 13.618,15.917 8.116,21.419 10.946,24.248 16.447,18.746 21.948,24.248z"><title>Remove vertex.</title></path></g></g><g  id="v-6761" display="none"><g  id="v-6746"><path  end="source" d="M 26 0 L 0 13 L 26 26 z"></path></g><g  id="v-6747"><path  end="target" d="M 26 0 L 0 13 L 26 26 z"></path></g></g><g  id="v-6760" display="none"><g  id="v-6745" transform="translate(1447.9916727385378, 1385.8161565865007) "><g  event="remove"><circle r="11"></circle><path transform="scale(.8) translate(-16, -16)" d="M24.778,21.419 19.276,15.917 24.777,10.415 21.949,7.585 16.447,13.087 10.945,7.585 8.117,10.415 13.618,15.917 8.116,21.419 10.946,24.248 16.447,18.746 21.948,24.248z"></path><title>Remove link.</title></g><g  event="link:options"><circle r="11" transform="translate(25)"></circle><path fill="white" transform="scale(.55) translate(29, -16)" d="M31.229,17.736c0.064-0.571,0.104-1.148,0.104-1.736s-0.04-1.166-0.104-1.737l-4.377-1.557c-0.218-0.716-0.504-1.401-0.851-2.05l1.993-4.192c-0.725-0.91-1.549-1.734-2.458-2.459l-4.193,1.994c-0.647-0.347-1.334-0.632-2.049-0.849l-1.558-4.378C17.165,0.708,16.588,0.667,16,0.667s-1.166,0.041-1.737,0.105L12.707,5.15c-0.716,0.217-1.401,0.502-2.05,0.849L6.464,4.005C5.554,4.73,4.73,5.554,4.005,6.464l1.994,4.192c-0.347,0.648-0.632,1.334-0.849,2.05l-4.378,1.557C0.708,14.834,0.667,15.412,0.667,16s0.041,1.165,0.105,1.736l4.378,1.558c0.217,0.715,0.502,1.401,0.849,2.049l-1.994,4.193c0.725,0.909,1.549,1.733,2.459,2.458l4.192-1.993c0.648,0.347,1.334,0.633,2.05,0.851l1.557,4.377c0.571,0.064,1.148,0.104,1.737,0.104c0.588,0,1.165-0.04,1.736-0.104l1.558-4.377c0.715-0.218,1.399-0.504,2.049-0.851l4.193,1.993c0.909-0.725,1.733-1.549,2.458-2.458l-1.993-4.193c0.347-0.647,0.633-1.334,0.851-2.049L31.229,17.736zM16,20.871c-2.69,0-4.872-2.182-4.872-4.871c0-2.69,2.182-4.872,4.872-4.872c2.689,0,4.871,2.182,4.871,4.872C20.871,18.689,18.689,20.871,16,20.871z"></path><title>Link options.</title></g></g></g></g><!--z-index:36--><g   id="j_464" ><path  stroke="#707070" d="M 1408 1289 L 1708 1169" id="v-6777" stroke-width="2" stroke-dasharray="30 30" fill="none"></path><path  fill="black" stroke="black" d="M 0 0 0 0" transform="matrix(0.9284766089996245,-0.3713908810681253,0.3713908810681253,0.9284766089996245,1408,1289)"></path><path  fill="#707070" stroke="#707070" d="M 20 0 L 0 10 L 20 20 z" id="v-6779" transform="matrix(-0.928476707906966,0.37139063379983406,-0.37139063379983406,-0.928476707906966,1711.7138833780054,1178.2847279285713)"></path><path  d="M 1408 1289 L 1708 1169" id="v-6778" fill="none" style="pointer-events: visiblepainted; cursor: auto;"></path><g ><g id="v-6768"  label-idx="0" cursor="move" transform="matrix(1,0,0,1,1558,1229)"><rect joint-selector="rect" id="v-6772" fill="#ffffff" rx="3" ry="3" pointer-events="none" width="178.36288452148438" height="30.214472770690918" transform="matrix(1,0,0,1,-89.7,-15.1)"></rect><text joint-selector="text" id="v-6771" font-size="24px" xml:space="preserve" y="0.8em" fill="#707070" text-anchor="middle" pointer-events="none" font-family="Arial" font-weight="normal" transform="matrix(1,0,0,1,0,-12.7)"><tspan dy="0" >4: Create parcel</tspan></text></g><g id="v-6769"  label-idx="1" cursor="move" transform="matrix(1,0,0,1,1558,1255.4000244140625)"><rect joint-selector="rect" id="v-6774" fill="#ffffff" rx="3" ry="3" pointer-events="none" width="118.9019775390625" height="21.581767082214355" transform="matrix(1,0,0,1,-57.5,-10.8)"></rect><text joint-selector="text" id="v-6773" font-size="17px" xml:space="preserve" y="0.8em" fill="#707070" text-anchor="middle" pointer-events="none" font-family="Arial" font-weight="normal" transform="matrix(1,0,0,1,0,-7.1)"><tspan dy="0" >[HTTPS/REST]</tspan></text></g><g id="v-6770"  label-idx="2" cursor="move" transform="matrix(1,0,0,1,1548,1263.800048828125)"><rect joint-selector="rect" id="v-6776" fill="#ffffff" rx="3" ry="3"  width="0" height="0" transform="matrix(1,0,0,1,0,0)" display="none"></rect><text joint-selector="text" id="v-6775" fill="#000000" font-size="14" text-anchor="middle" pointer-events="none"></text></g></g><g  display="none" style="display: none;"></g><g  id="v-6781" display="none"><g  id="v-6766"><path  end="source" d="M 26 0 L 0 13 L 26 26 z"></path></g><g  id="v-6767"><path  end="target" d="M 26 0 L 0 13 L 26 26 z"></path></g></g><g  id="v-6780" display="none"><g  id="v-6765" transform="translate(1445.1390676354104, 1274.1443729458358) "><g  event="remove"><circle r="11"></circle><path transform="scale(.8) translate(-16, -16)" d="M24.778,21.419 19.276,15.917 24.777,10.415 21.949,7.585 16.447,13.087 10.945,7.585 8.117,10.415 13.618,15.917 8.116,21.419 10.946,24.248 16.447,18.746 21.948,24.248z"></path><title>Remove link.</title></g><g  event="link:options"><circle r="11" transform="translate(25)"></circle><path fill="white" transform="scale(.55) translate(29, -16)" d="M31.229,17.736c0.064-0.571,0.104-1.148,0.104-1.736s-0.04-1.166-0.104-1.737l-4.377-1.557c-0.218-0.716-0.504-1.401-0.851-2.05l1.993-4.192c-0.725-0.91-1.549-1.734-2.458-2.459l-4.193,1.994c-0.647-0.347-1.334-0.632-2.049-0.849l-1.558-4.378C17.165,0.708,16.588,0.667,16,0.667s-1.166,0.041-1.737,0.105L12.707,5.15c-0.716,0.217-1.401,0.502-2.05,0.849L6.464,4.005C5.554,4.73,4.73,5.554,4.005,6.464l1.994,4.192c-0.347,0.648-0.632,1.334-0.849,2.05l-4.378,1.557C0.708,14.834,0.667,15.412,0.667,16s0.041,1.165,0.105,1.736l4.378,1.558c0.217,0.715,0.502,1.401,0.849,2.049l-1.994,4.193c0.725,0.909,1.549,1.733,2.459,2.458l4.192-1.993c0.648,0.347,1.334,0.633,2.05,0.851l1.557,4.377c0.571,0.064,1.148,0.104,1.737,0.104c0.588,0,1.165-0.04,1.736-0.104l1.558-4.377c0.715-0.218,1.399-0.504,2.049-0.851l4.193,1.993c0.909-0.725,1.733-1.549,2.458-2.458l-1.993-4.193c0.347-0.647,0.633-1.334,0.851-2.049L31.229,17.736zM16,20.871c-2.69,0-4.872-2.182-4.872-4.871c0-2.69,2.182-4.872,4.872-4.872c2.689,0,4.871,2.182,4.871,4.872C20.871,18.689,18.689,20.871,16,20.871z"></path><title>Link options.</title></g></g></g></g><!--z-index:37--><g   id="j_465" ><path  stroke="#707070" d="M 1308 1229 L 1808 629" id="v-6797" stroke-width="2" stroke-dasharray="30 30" fill="none"></path><path  fill="black" stroke="black" d="M 0 0 0 0" transform="matrix(0.6401844186703122,-0.7682212637591819,0.7682212637591819,0.6401844186703122,1308,1229)"></path><path  fill="#707070" stroke="#707070" d="M 20 0 L 0 10 L 20 20 z" id="v-6799" transform="matrix(-0.6401844186703123,0.7682212637591818,-0.7682212637591818,-0.6401844186703123,1815.682201355545,635.4018214905176)"></path><path  d="M 1308 1229 L 1808 629" id="v-6798" fill="none" style="pointer-events: visiblepainted; cursor: auto;"></path><g ><g id="v-6788"  label-idx="0" cursor="move" transform="matrix(1,0,0,1,1558,929)"><rect joint-selector="rect" id="v-6792" fill="#ffffff" rx="3" ry="3" pointer-events="none" width="197.65908813476562" height="30.214472770690918" transform="matrix(1,0,0,1,-98.4,-15.1)"></rect><text joint-selector="text" id="v-6791" font-size="24px" xml:space="preserve" y="0.8em" fill="#707070" text-anchor="middle" pointer-events="none" font-family="Arial" font-weight="normal" transform="matrix(1,0,0,1,0,-12.7)"><tspan dy="0" >5: Create delivery</tspan></text></g><g id="v-6789"  label-idx="1" cursor="move" transform="matrix(1,0,0,1,1558,955.4000244140625)"><rect joint-selector="rect" id="v-6794" fill="#ffffff" rx="3" ry="3" pointer-events="none" width="118.9019775390625" height="21.581767082214355" transform="matrix(1,0,0,1,-57.5,-10.8)"></rect><text joint-selector="text" id="v-6793" font-size="17px" xml:space="preserve" y="0.8em" fill="#707070" text-anchor="middle" pointer-events="none" font-family="Arial" font-weight="normal" transform="matrix(1,0,0,1,0,-7.1)"><tspan dy="0" >[HTTPS/REST]</tspan></text></g><g id="v-6790"  label-idx="2" cursor="move" transform="matrix(1,0,0,1,1548,963.7999877929688)"><rect joint-selector="rect" id="v-6796" fill="#ffffff" rx="3" ry="3"  width="0" height="0" transform="matrix(1,0,0,1,0,0)" display="none"></rect><text joint-selector="text" id="v-6795" fill="#000000" font-size="14" text-anchor="middle" pointer-events="none"></text></g></g><g  display="none" style="display: none;"></g><g  id="v-6801" display="none"><g  id="v-6786"><path  end="source" d="M 26 0 L 0 13 L 26 26 z"></path></g><g  id="v-6787"><path  end="target" d="M 26 0 L 0 13 L 26 26 z"></path></g></g><g  id="v-6800" display="none"><g  id="v-6785" transform="translate(1333.6073759865792, 1198.2711488161049) "><g  event="remove"><circle r="11"></circle><path transform="scale(.8) translate(-16, -16)" d="M24.778,21.419 19.276,15.917 24.777,10.415 21.949,7.585 16.447,13.087 10.945,7.585 8.117,10.415 13.618,15.917 8.116,21.419 10.946,24.248 16.447,18.746 21.948,24.248z"></path><title>Remove link.</title></g><g  event="link:options"><circle r="11" transform="translate(25)"></circle><path fill="white" transform="scale(.55) translate(29, -16)" d="M31.229,17.736c0.064-0.571,0.104-1.148,0.104-1.736s-0.04-1.166-0.104-1.737l-4.377-1.557c-0.218-0.716-0.504-1.401-0.851-2.05l1.993-4.192c-0.725-0.91-1.549-1.734-2.458-2.459l-4.193,1.994c-0.647-0.347-1.334-0.632-2.049-0.849l-1.558-4.378C17.165,0.708,16.588,0.667,16,0.667s-1.166,0.041-1.737,0.105L12.707,5.15c-0.716,0.217-1.401,0.502-2.05,0.849L6.464,4.005C5.554,4.73,4.73,5.554,4.005,6.464l1.994,4.192c-0.347,0.648-0.632,1.334-0.849,2.05l-4.378,1.557C0.708,14.834,0.667,15.412,0.667,16s0.041,1.165,0.105,1.736l4.378,1.558c0.217,0.715,0.502,1.401,0.849,2.049l-1.994,4.193c0.725,0.909,1.549,1.733,2.459,2.458l4.192-1.993c0.648,0.347,1.334,0.633,2.05,0.851l1.557,4.377c0.571,0.064,1.148,0.104,1.737,0.104c0.588,0,1.165-0.04,1.736-0.104l1.558-4.377c0.715-0.218,1.399-0.504,2.049-0.851l4.193,1.993c0.909-0.725,1.733-1.549,2.458-2.458l-1.993-4.193c0.347-0.647,0.633-1.334,0.851-2.049L31.229,17.736zM16,20.871c-2.69,0-4.872-2.182-4.872-4.871c0-2.69,2.182-4.872,4.872-4.872c2.689,0,4.871,2.182,4.871,4.872C20.871,18.689,18.689,20.871,16,20.871z"></path><title>Link options.</title></g></g></g></g><!--z-index:38--><g   id="j_466" ><path  stroke="#707070" d="M 2121 629 L 2496 929" id="v-6817" stroke-width="2" stroke-dasharray="30 30" fill="none"></path><path  fill="black" stroke="black" d="M 0 0 0 0" transform="matrix(0.7808688000832672,0.624695059254128,-0.624695059254128,0.7808688000832672,2120.5,629)"></path><path  fill="#707070" stroke="#707070" d="M 20 0 L 0 10 L 20 20 z" id="v-6819" transform="matrix(-0.7808688416748548,-0.6246950072646416,0.6246950072646416,-0.7808688416748548,2489.253144594102,936.8086902472074)"></path><path  d="M 2121 629 L 2496 929" id="v-6818" fill="none" style="pointer-events: visiblepainted; cursor: auto;"></path><g ><g id="v-6808"  label-idx="0" cursor="move" transform="matrix(1,0,0,1,2308.5,779)"><rect joint-selector="rect" id="v-6812" fill="#ffffff" rx="3" ry="3" pointer-events="none" width="180.3279571533203" height="30.214472770690918" transform="matrix(1,0,0,1,-89.7,-15.1)"></rect><text joint-selector="text" id="v-6811" font-size="24px" xml:space="preserve" y="0.8em" fill="#707070" text-anchor="middle" pointer-events="none" font-family="Arial" font-weight="normal" transform="matrix(1,0,0,1,0,-12.7)"><tspan dy="0" >6: Save delivery</tspan></text></g><g id="v-6809"  label-idx="1" cursor="move" transform="matrix(1,0,0,1,2308.5,805.4000244140625)"><rect joint-selector="rect" id="v-6814" fill="#ffffff" rx="3" ry="3" pointer-events="none" width="57.64224624633789" height="21.581767082214355" transform="matrix(1,0,0,1,-26.9,-10.8)"></rect><text joint-selector="text" id="v-6813" font-size="17px" xml:space="preserve" y="0.8em" fill="#707070" text-anchor="middle" pointer-events="none" font-family="Arial" font-weight="normal" transform="matrix(1,0,0,1,0,-7.1)"><tspan dy="0" >[JDBC]</tspan></text></g><g id="v-6810"  label-idx="2" cursor="move" transform="matrix(1,0,0,1,2298.5,813.7999877929688)"><rect joint-selector="rect" id="v-6816" fill="#ffffff" rx="3" ry="3"  width="0" height="0" transform="matrix(1,0,0,1,0,0)" display="none"></rect><text joint-selector="text" id="v-6815" fill="#000000" font-size="14" text-anchor="middle" pointer-events="none"></text></g></g><g  display="none" style="display: none;"></g><g  id="v-6821" display="none"><g  id="v-6806"><path  end="source" d="M 26 0 L 0 13 L 26 26 z"></path></g><g  id="v-6807"><path  end="target" d="M 26 0 L 0 13 L 26 26 z"></path></g></g><g  id="v-6820" display="none"><g  id="v-6805" transform="translate(2152.234752377721, 653.987801902177) "><g  event="remove"><circle r="11"></circle><path transform="scale(.8) translate(-16, -16)" d="M24.778,21.419 19.276,15.917 24.777,10.415 21.949,7.585 16.447,13.087 10.945,7.585 8.117,10.415 13.618,15.917 8.116,21.419 10.946,24.248 16.447,18.746 21.948,24.248z"></path><title>Remove link.</title></g><g  event="link:options"><circle r="11" transform="translate(25)"></circle><path fill="white" transform="scale(.55) translate(29, -16)" d="M31.229,17.736c0.064-0.571,0.104-1.148,0.104-1.736s-0.04-1.166-0.104-1.737l-4.377-1.557c-0.218-0.716-0.504-1.401-0.851-2.05l1.993-4.192c-0.725-0.91-1.549-1.734-2.458-2.459l-4.193,1.994c-0.647-0.347-1.334-0.632-2.049-0.849l-1.558-4.378C17.165,0.708,16.588,0.667,16,0.667s-1.166,0.041-1.737,0.105L12.707,5.15c-0.716,0.217-1.401,0.502-2.05,0.849L6.464,4.005C5.554,4.73,4.73,5.554,4.005,6.464l1.994,4.192c-0.347,0.648-0.632,1.334-0.849,2.05l-4.378,1.557C0.708,14.834,0.667,15.412,0.667,16s0.041,1.165,0.105,1.736l4.378,1.558c0.217,0.715,0.502,1.401,0.849,2.049l-1.994,4.193c0.725,0.909,1.549,1.733,2.459,2.458l4.192-1.993c0.648,0.347,1.334,0.633,2.05,0.851l1.557,4.377c0.571,0.064,1.148,0.104,1.737,0.104c0.588,0,1.165-0.04,1.736-0.104l1.558-4.377c0.715-0.218,1.399-0.504,2.049-0.851l4.193,1.993c0.909-0.725,1.733-1.549,2.458-2.458l-1.993-4.193c0.347-0.647,0.633-1.334,0.851-2.049L31.229,17.736zM16,20.871c-2.69,0-4.872-2.182-4.872-4.871c0-2.69,2.182-4.872,4.872-4.872c2.689,0,4.871,2.182,4.871,4.872C20.871,18.689,18.689,20.871,16,20.871z"></path><title>Link options.</title></g></g></g></g><!--z-index:39--><g   id="j_467" ><path  stroke="#707070" d="M 2158 479 L 2458 479" id="v-6837" stroke-width="2" stroke-dasharray="30 30" fill="none"></path><path  fill="black" stroke="black" d="M 0 0 0 0" transform="matrix(1,0,0,1,2158,479)"></path><path  fill="#707070" stroke="#707070" d="M 20 0 L 0 10 L 20 20 z" id="v-6839" transform="matrix(-1,1.2246467991473532e-16,-1.2246467991473532e-16,-1,2458,489)"></path><path  d="M 2158 479 L 2458 479" id="v-6838" fill="none" style="pointer-events: visiblepainted; cursor: auto;"></path><g ><g id="v-6828"  label-idx="0" cursor="move" transform="matrix(1,0,0,1,2308,479)"><rect joint-selector="rect" id="v-6832" fill="#ffffff" rx="3" ry="3" pointer-events="none" width="176.85536193847656" height="54.6981201171875" transform="matrix(1,0,0,1,-86.5,-27.4)"></rect><text joint-selector="text" id="v-6831" font-size="24px" xml:space="preserve" y="0.8em" fill="#707070" text-anchor="middle" pointer-events="none" font-family="Arial" font-weight="normal" transform="matrix(1,0,0,1,0,-25)"><tspan dy="0" >7: Write tracking</tspan><tspan dy="1.2em" x="0" >event</tspan></text></g><g id="v-6829"  label-idx="1" cursor="move" transform="matrix(1,0,0,1,2308,519.7999877929688)"><rect joint-selector="rect" id="v-6834" fill="#ffffff" rx="3" ry="3" pointer-events="none" width="138.72265625" height="21.581767082214355" transform="matrix(1,0,0,1,-67.4,-10.8)"></rect><text joint-selector="text" id="v-6833" font-size="17px" xml:space="preserve" y="0.8em" fill="#707070" text-anchor="middle" pointer-events="none" font-family="Arial" font-weight="normal" transform="matrix(1,0,0,1,0,-7.1)"><tspan dy="0" >[MongoDB Driver]</tspan></text></g><g id="v-6830"  label-idx="2" cursor="move" transform="matrix(1,0,0,1,2298,528.2000122070312)"><rect joint-selector="rect" id="v-6836" fill="#ffffff" rx="3" ry="3"  width="0" height="0" transform="matrix(1,0,0,1,0,0)" display="none"></rect><text joint-selector="text" id="v-6835" fill="#000000" font-size="14" text-anchor="middle" pointer-events="none"></text></g></g><g  display="none" style="display: none;"></g><g  id="v-6841" display="none"><g  id="v-6826"><path  end="source" d="M 26 0 L 0 13 L 26 26 z"></path></g><g  id="v-6827"><path  end="target" d="M 26 0 L 0 13 L 26 26 z"></path></g></g><g  id="v-6840" display="none"><g  id="v-6825" transform="translate(2198, 479) "><g  event="remove"><circle r="11"></circle><path transform="scale(.8) translate(-16, -16)" d="M24.778,21.419 19.276,15.917 24.777,10.415 21.949,7.585 16.447,13.087 10.945,7.585 8.117,10.415 13.618,15.917 8.116,21.419 10.946,24.248 16.447,18.746 21.948,24.248z"></path><title>Remove link.</title></g><g  event="link:options"><circle r="11" transform="translate(25)"></circle><path fill="white" transform="scale(.55) translate(29, -16)" d="M31.229,17.736c0.064-0.571,0.104-1.148,0.104-1.736s-0.04-1.166-0.104-1.737l-4.377-1.557c-0.218-0.716-0.504-1.401-0.851-2.05l1.993-4.192c-0.725-0.91-1.549-1.734-2.458-2.459l-4.193,1.994c-0.647-0.347-1.334-0.632-2.049-0.849l-1.558-4.378C17.165,0.708,16.588,0.667,16,0.667s-1.166,0.041-1.737,0.105L12.707,5.15c-0.716,0.217-1.401,0.502-2.05,0.849L6.464,4.005C5.554,4.73,4.73,5.554,4.005,6.464l1.994,4.192c-0.347,0.648-0.632,1.334-0.849,2.05l-4.378,1.557C0.708,14.834,0.667,15.412,0.667,16s0.041,1.165,0.105,1.736l4.378,1.558c0.217,0.715,0.502,1.401,0.849,2.049l-1.994,4.193c0.725,0.909,1.549,1.733,2.459,2.458l4.192-1.993c0.648,0.347,1.334,0.633,2.05,0.851l1.557,4.377c0.571,0.064,1.148,0.104,1.737,0.104c0.588,0,1.165-0.04,1.736-0.104l1.558-4.377c0.715-0.218,1.399-0.504,2.049-0.851l4.193,1.993c0.909-0.725,1.733-1.549,2.458-2.458l-1.993-4.193c0.347-0.647,0.633-1.334,0.851-2.049L31.229,17.736zM16,20.871c-2.69,0-4.872-2.182-4.872-4.871c0-2.69,2.182-4.872,4.872-4.872c2.689,0,4.871,2.182,4.871,4.872C20.871,18.689,18.689,20.871,16,20.871z"></path><title>Link options.</title></g></g></g></g><!--z-index:40--><g   id="j_468" ><path  stroke="#707070" d="M 2046 629 L 2152 771 C 2156 776.3333333333333 2159 781.9999999999999 2161 788 L 2627 2037" id="v-6858" stroke-width="2" stroke-dasharray="30 30" fill="none"></path><path  fill="black" stroke="black" d="M 0 0 0 0" transform="matrix(0.599999976112929,0.8000000179153027,-0.8000000179153027,0.599999976112929,2045.5,629)"></path><path  fill="#707070" stroke="#707070" d="M 20 0 L 0 10 L 20 20 z" id="v-6860" transform="matrix(-0.3493725796417064,-0.9369838849171844,0.9369838849171844,-0.3493725796417064,2617.6998146816204,2040.493691598714)"></path><path  d="M 2046 629 L 2152 771 C 2156 776.3333333333333 2159 781.9999999999999 2161 788 L 2627 2037" id="v-6859" fill="none" style="pointer-events: visiblepainted; cursor: auto;"></path><g ><g id="v-6849"  label-idx="0" cursor="move" transform="matrix(1,0,0,1,2359.653076171875,1320.44140625)"><rect joint-selector="rect" id="v-6853" fill="#ffffff" rx="3" ry="3" pointer-events="none" width="181.6754913330078" height="54.6981201171875" transform="matrix(1,0,0,1,-90.4,-27.4)"></rect><text joint-selector="text" id="v-6852" font-size="24px" xml:space="preserve" y="0.8em" fill="#707070" text-anchor="middle" pointer-events="none" font-family="Arial" font-weight="normal" transform="matrix(1,0,0,1,0,-25)"><tspan dy="0" >8: Send delivery</tspan><tspan dy="1.2em" x="0" >notification</tspan></text></g><g id="v-6850"  label-idx="1" cursor="move" transform="matrix(1,0,0,1,2359.653076171875,1361.2413330078125)"><rect joint-selector="rect" id="v-6855" fill="#ffffff" rx="3" ry="3" pointer-events="none" width="92.52115631103516" height="21.581767082214355" transform="matrix(1,0,0,1,-44.3,-10.8)"></rect><text joint-selector="text" id="v-6854" font-size="17px" xml:space="preserve" y="0.8em" fill="#707070" text-anchor="middle" pointer-events="none" font-family="Arial" font-weight="normal" transform="matrix(1,0,0,1,0,-7.1)"><tspan dy="0" >[SMTP/API]</tspan></text></g><g id="v-6851"  label-idx="2" cursor="move" transform="matrix(1,0,0,1,2349.653076171875,1369.641357421875)"><rect joint-selector="rect" id="v-6857" fill="#ffffff" rx="3" ry="3"  width="0" height="0" transform="matrix(1,0,0,1,0,0)" display="none"></rect><text joint-selector="text" id="v-6856" fill="#000000" font-size="14" text-anchor="middle" pointer-events="none"></text></g></g><g  display="none" style="display: none;"><g  transform="translate(2158, 779)" id="v-6846"><circle  idx="0" r="10"></circle><path  idx="0" d="M16,5.333c-7.732,0-14,4.701-14,10.5c0,1.982,0.741,3.833,2.016,5.414L2,25.667l5.613-1.441c2.339,1.317,5.237,2.107,8.387,2.107c7.732,0,14-4.701,14-10.5C30,10.034,23.732,5.333,16,5.333z" transform="translate(5, -33)"></path><path  idx="0" transform="scale(.8) translate(9.5, -37)" d="M24.778,21.419 19.276,15.917 24.777,10.415 21.949,7.585 16.447,13.087 10.945,7.585 8.117,10.415 13.618,15.917 8.116,21.419 10.946,24.248 16.447,18.746 21.948,24.248z"><title>Remove vertex.</title></path></g></g><g  id="v-6862" display="none"><g  id="v-6847"><path  end="source" d="M 26 0 L 0 13 L 26 26 z"></path></g><g  id="v-6848"><path  end="target" d="M 26 0 L 0 13 L 26 26 z"></path></g></g><g  id="v-6861" display="none"><g  id="v-6845" transform="translate(2069.9277042744834, 661.0540944054401) "><g  event="remove"><circle r="11"></circle><path transform="scale(.8) translate(-16, -16)" d="M24.778,21.419 19.276,15.917 24.777,10.415 21.949,7.585 16.447,13.087 10.945,7.585 8.117,10.415 13.618,15.917 8.116,21.419 10.946,24.248 16.447,18.746 21.948,24.248z"></path><title>Remove link.</title></g><g  event="link:options"><circle r="11" transform="translate(25)"></circle><path fill="white" transform="scale(.55) translate(29, -16)" d="M31.229,17.736c0.064-0.571,0.104-1.148,0.104-1.736s-0.04-1.166-0.104-1.737l-4.377-1.557c-0.218-0.716-0.504-1.401-0.851-2.05l1.993-4.192c-0.725-0.91-1.549-1.734-2.458-2.459l-4.193,1.994c-0.647-0.347-1.334-0.632-2.049-0.849l-1.558-4.378C17.165,0.708,16.588,0.667,16,0.667s-1.166,0.041-1.737,0.105L12.707,5.15c-0.716,0.217-1.401,0.502-2.05,0.849L6.464,4.005C5.554,4.73,4.73,5.554,4.005,6.464l1.994,4.192c-0.347,0.648-0.632,1.334-0.849,2.05l-4.378,1.557C0.708,14.834,0.667,15.412,0.667,16s0.041,1.165,0.105,1.736l4.378,1.558c0.217,0.715,0.502,1.401,0.849,2.049l-1.994,4.193c0.725,0.909,1.549,1.733,2.459,2.458l4.192-1.993c0.648,0.347,1.334,0.633,2.05,0.851l1.557,4.377c0.571,0.064,1.148,0.104,1.737,0.104c0.588,0,1.165-0.04,1.736-0.104l1.558-4.377c0.715-0.218,1.399-0.504,2.049-0.851l4.193,1.993c0.909-0.725,1.733-1.549,2.458-2.458l-1.993-4.193c0.347-0.647,0.633-1.334,0.851-2.049L31.229,17.736zM16,20.871c-2.69,0-4.872-2.182-4.872-4.871c0-2.69,2.182-4.872,4.872-4.872c2.689,0,4.871,2.182,4.871,4.872C20.871,18.689,18.689,20.871,16,20.871z"></path><title>Link options.</title></g></g></g></g><!--z-index:41--></g><g ></g><g ></g><g ></g></g></svg>