<svg xmlns="http://www.w3.org/2000/svg" xmlns:xlink="http://www.w3.org/1999/xlink" version="1.1" viewBox="0 0 2366 1316" style="background: #ffffff"><defs joint-selector="defs"></defs><g joint-selector="layers"  transform="matrix(1,0,0,1,0,0)"><g ></g><g ><!--z-index:1--><!--z-index:2--><!--z-index:3--><!--z-index:4--><!--z-index:5--><!--z-index:6--><!--z-index:7--><!--z-index:8--><!--z-index:9--><!--z-index:10--><!--z-index:11--><g   id="j_439"  transform="translate(20,1279.6)"><g id="v-6457"><text  id="v-6458" font-size="22px" xml:space="preserve" y="0.8em" font-weight="normal" text-anchor="start" fill="#aaaaaa" pointer-events="none" display="block" font-family="Arial"><tspan dy="0"  display="block">Tuesday, March 10, 2026 at 11:35 PM Moscow Standard Time</tspan></text></g></g><!--z-index:12--><g   id="j_438"  transform="translate(20,1236.3999999999999)"><g id="v-6455"><text  id="v-6456" font-size="36px" xml:space="preserve" y="0.8em" font-weight="normal" text-anchor="start" fill="#000000" pointer-events="none" display="block" font-family="Arial"><tspan dy="0"  display="block">System Context Diagram</tspan></text></g></g><!--z-index:13--><g   id="j_440"  transform="translate(208,208)" style=""><g  id="v-6462" style="opacity: 1;"><rect  x="0" y="160" width="400" height="240" rx="70" id="v-6464" stroke="#073b6f" stroke-width="2" pointer-events="visiblePainted" fill="#08427b" style="fill: rgb(8, 66, 123); stroke: rgb(7, 59, 111);"></rect><circle  cx="200" cy="88.88888888888889" r="88.88888888888889" id="v-6463" stroke="#073b6f" stroke-width="2" pointer-events="visiblePainted" fill="#08427b" style="fill: rgb(8, 66, 123); stroke: rgb(7, 59, 111);"></circle><line  x1="80" y1="266.6666666666667" x2="80" y2="400" id="v-6470" stroke="#073b6f" stroke-width="2" style="stroke: rgb(7, 59, 111);"></line><line  x1="320" y1="266.6666666666667" x2="320" y2="400" id="v-6471" stroke="#073b6f" stroke-width="2" style="stroke: rgb(7, 59, 111);"></line><text  id="v-6465" font-size="34" xml:space="preserve" y="0.8em" font-weight="bold" text-anchor="middle" pointer-events="visible" font-family="Arial" fill="#ffffff" transform="matrix(1,0,0,1,200,218.1)" style="fill: rgb(255, 255, 255);"><tspan dy="0" >User</tspan></text><text  id="v-6466" font-size="17" xml:space="preserve" y="0.8em" text-anchor="middle" font-family="Arial" fill="#ffffff" transform="matrix(1,0,0,1,200,258.9)" style="fill: rgb(255, 255, 255);"><tspan dy="0" >[Person]</tspan></text><text  id="v-6467" font-size="24" xml:space="preserve" y="0.8em" text-anchor="middle" font-family="Arial" fill="#ffffff" transform="matrix(1,0,0,1,200,289.3)" style="fill: rgb(255, 255, 255);"><tspan dy="0" >Customer who sends and receives</tspan><tspan dy="1.2em" x="0" >parcels</tspan></text><g  id="v-6468" font-weight="normal" text-anchor="middle" color="#ffffff" transform="matrix(1,0,0,1,200,368)" display="none" style="fill: rgb(255, 255, 255);"><g ></g><g ></g><g ></g><g ></g></g><image  id="v-6469"></image></g></g><!--z-index:14--><g   id="j_441"  transform="translate(208,808)" style=""><g  id="v-6475" style="opacity: 1;"><rect  x="0" y="160" width="400" height="240" rx="70" id="v-6477" stroke="#073b6f" stroke-width="2" pointer-events="visiblePainted" fill="#08427b" style="fill: rgb(8, 66, 123); stroke: rgb(7, 59, 111);"></rect><circle  cx="200" cy="88.88888888888889" r="88.88888888888889" id="v-6476" stroke="#073b6f" stroke-width="2" pointer-events="visiblePainted" fill="#08427b" style="fill: rgb(8, 66, 123); stroke: rgb(7, 59, 111);"></circle><line  x1="80" y1="266.6666666666667" x2="80" y2="400" id="v-6483" stroke="#073b6f" stroke-width="2" style="stroke: rgb(7, 59, 111);"></line><line  x1="320" y1="266.6666666666667" x2="320" y2="400" id="v-6484" stroke="#073b6f" stroke-width="2" style="stroke: rgb(7, 59, 111);"></line><text  id="v-6478" font-size="34" xml:space="preserve" y="0.8em" font-weight="bold" text-anchor="middle" pointer-events="visible" font-family="Arial" fill="#ffffff" transform="matrix(1,0,0,1,200,218.1)" style="fill: rgb(255, 255, 255);"><tspan dy="0" >Admin</tspan></text><text  id="v-6479" font-size="17" xml:space="preserve" y="0.8em" text-anchor="middle" font-family="Arial" fill="#ffffff" transform="matrix(1,0,0,1,200,258.9)" style="fill: rgb(255, 255, 255);"><tspan dy="0" >[Person]</tspan></text><text  id="v-6480" font-size="24" xml:space="preserve" y="0.8em" text-anchor="middle" font-family="Arial" fill="#ffffff" transform="matrix(1,0,0,1,200,289.3)" style="fill: rgb(255, 255, 255);"><tspan dy="0" >Service operator who monitors</tspan><tspan dy="1.2em" x="0" >deliveries</tspan></text><g  id="v-6481" font-weight="normal" text-anchor="middle" color="#ffffff" transform="matrix(1,0,0,1,200,368)" display="none" style="fill: rgb(255, 255, 255);"><g ></g><g ></g><g ></g><g ></g></g><image  id="v-6482"></image></g></g><!--z-index:15--><g   id="j_442"  transform="translate(1708,208)" style=""><g  id="v-6488" style="opacity: 1;"><rect  id="v-6489" rx="20" ry="20" stroke="#0f5eaa" stroke-width="2" pointer-events="visiblePainted" fill="#1168bd" width="450" height="300" style="fill: rgb(17, 104, 189); stroke: rgb(15, 94, 170);"></rect><text  id="v-6490" font-size="34" xml:space="preserve" y="0.8em" font-weight="bold" text-anchor="middle" pointer-events="visible" font-family="Arial" fill="#ffffff" transform="matrix(1,0,0,1,225,88.1)" style="fill: rgb(255, 255, 255);"><tspan dy="0" >Email Service</tspan></text><text  id="v-6491" font-size="17" xml:space="preserve" y="0.8em" text-anchor="middle" font-family="Arial" fill="#ffffff" transform="matrix(1,0,0,1,225,128.9)" style="fill: rgb(255, 255, 255);"><tspan dy="0" >[Software System]</tspan></text><text  id="v-6492" font-size="24" xml:space="preserve" y="0.8em" text-anchor="middle" font-family="Arial" fill="#ffffff" transform="matrix(1,0,0,1,225,159.3)" style="fill: rgb(255, 255, 255);"><tspan dy="0" >External system used to send email</tspan><tspan dy="1.2em" x="0" >notifications</tspan></text><g  id="v-6493" color="#ffffff" transform="matrix(1,0,0,1,0,268)" display="none" style="fill: rgb(255, 255, 255);"><g ></g><g ></g><g ></g><g ></g></g><image  id="v-6494"></image></g></g><!--z-index:16--><g   id="j_443"  transform="translate(1708,808)" style=""><g  id="v-6498" style="opacity: 1;"><rect  id="v-6499" rx="20" ry="20" stroke="#0f5eaa" stroke-width="2" pointer-events="visiblePainted" fill="#1168bd" width="450" height="300" style="fill: rgb(17, 104, 189); stroke: rgb(15, 94, 170);"></rect><text  id="v-6500" font-size="34" xml:space="preserve" y="0.8em" font-weight="bold" text-anchor="middle" pointer-events="visible" font-family="Arial" fill="#ffffff" transform="matrix(1,0,0,1,225,102.5)" style="fill: rgb(255, 255, 255);"><tspan dy="0" >Payment System</tspan></text><text  id="v-6501" font-size="17" xml:space="preserve" y="0.8em" text-anchor="middle" font-family="Arial" fill="#ffffff" transform="matrix(1,0,0,1,225,143.3)" style="fill: rgb(255, 255, 255);"><tspan dy="0" >[Software System]</tspan></text><text  id="v-6502" font-size="24" xml:space="preserve" y="0.8em" text-anchor="middle" font-family="Arial" fill="#ffffff" transform="matrix(1,0,0,1,225,173.7)" style="fill: rgb(255, 255, 255);"><tspan dy="0" >External payment processing service</tspan></text><g  id="v-6503" color="#ffffff" transform="matrix(1,0,0,1,0,268)" display="none" style="fill: rgb(255, 255, 255);"><g ></g><g ></g><g ></g><g ></g></g><image  id="v-6504"></image></g></g><!--z-index:17--><g   id="j_444"  transform="translate(958,508)" style=""><g  id="v-6511" style="opacity: 1;"><rect  id="v-6512" rx="20" ry="20" stroke="#0f5eaa" stroke-width="2" pointer-events="visiblePainted" fill="#1168bd" width="450" height="300" style="fill: rgb(17, 104, 189); stroke: rgb(15, 94, 170);"></rect><text  id="v-6513" font-size="34" xml:space="preserve" y="0.8em" font-weight="bold" text-anchor="middle" pointer-events="visible" font-family="Arial" fill="#ffffff" transform="matrix(1,0,0,1,225,88.1)" style="fill: rgb(255, 255, 255);"><tspan dy="0" >Delivery Service</tspan></text><text  id="v-6514" font-size="17" xml:space="preserve" y="0.8em" text-anchor="middle" font-family="Arial" fill="#ffffff" transform="matrix(1,0,0,1,225,128.9)" style="fill: rgb(255, 255, 255);"><tspan dy="0" >[Software System]</tspan></text><text  id="v-6515" font-size="24" xml:space="preserve" y="0.8em" text-anchor="middle" font-family="Arial" fill="#ffffff" transform="matrix(1,0,0,1,225,159.3)" style="fill: rgb(255, 255, 255);"><tspan dy="0" >System for managing parcel deliveries</tspan><tspan dy="1.2em" x="0" >between users</tspan></text><g  id="v-6516" color="#ffffff" transform="matrix(1,0,0,1,0,268)" display="none" style="fill: rgb(255, 255, 255);"><g ></g><g ></g><g ></g><g ></g></g><image  id="v-6517"></image></g></g><!--z-index:18--><g   id="j_445" ><path  stroke="#707070" d="M 1408 568 L 1708 448" id="v-6533" stroke-width="2" stroke-dasharray="30 30" fill="none" style="opacity: 1;"></path><path  fill="black" stroke="black" d="M 0 0 0 0" transform="matrix(0.9284766089996245,-0.3713908810681253,0.3713908810681253,0.9284766089996245,1408,568)"></path><path  fill="#707070" stroke="#707070" d="M 20 0 L 0 10 L 20 20 z" id="v-6535" transform="matrix(-0.928476707906966,0.37139063379983406,-0.37139063379983406,-0.928476707906966,1711.7138833780052,457.284758446149)" style="opacity: 1;"></path><path  d="M 1408 568 L 1708 448" id="v-6534" fill="none" style="pointer-events: visiblepainted; cursor: auto;"></path><g ><g id="v-6524"  label-idx="0" cursor="move" transform="matrix(1,0,0,1,1558,508)" style="opacity: 1;"><rect joint-selector="rect" id="v-6528" fill="#ffffff" rx="3" ry="3" pointer-events="none" width="161.13706970214844" height="57.34423828125" transform="matrix(1,0,0,1,-78.6,-28.7)"></rect><text joint-selector="text" id="v-6527" font-size="24px" xml:space="preserve" y="0.8em" fill="#707070" text-anchor="middle" pointer-events="none" font-family="Arial" font-weight="normal" transform="matrix(1,0,0,1,0,-25.7)"><tspan dy="0" >Sends delivery</tspan><tspan dy="1.2em" x="0" >notifications</tspan></text></g><g id="v-6525"  label-idx="1" cursor="move" transform="matrix(1,0,0,1,1558,548.7999877929688)" style="opacity: 1;"><rect joint-selector="rect" id="v-6530" fill="#ffffff" rx="3" ry="3" pointer-events="none" width="90.41166687011719" height="19.029492378234863" transform="matrix(1,0,0,1,-44.4,-9.6)"></rect><text joint-selector="text" id="v-6529" font-size="17px" xml:space="preserve" y="0.8em" fill="#707070" text-anchor="middle" pointer-events="none" font-family="Arial" font-weight="normal" transform="matrix(1,0,0,1,0,-7.3)"><tspan dy="0" >[SMTP/API]</tspan></text></g><g id="v-6526"  label-idx="2" cursor="move" transform="matrix(1,0,0,1,1548,557.2000122070312)" style="opacity: 1;"><rect joint-selector="rect" id="v-6532" fill="#ffffff" rx="3" ry="3"  width="0" height="0" transform="matrix(1,0,0,1,0,0)" display="none"></rect><text joint-selector="text" id="v-6531" fill="#000000" font-size="14" text-anchor="middle" pointer-events="none"></text></g></g><g  display="none" style="display: none;"></g><g  id="v-6537" display="none"><g  id="v-6522"><path  end="source" d="M 26 0 L 0 13 L 26 26 z"></path></g><g  id="v-6523"><path  end="target" d="M 26 0 L 0 13 L 26 26 z"></path></g></g><g  id="v-6536" display="none"><g  id="v-6521" transform="translate(1445.1390676354104, 553.1443729458358) "><g  event="remove"><circle r="11"></circle><path transform="scale(.8) translate(-16, -16)" d="M24.778,21.419 19.276,15.917 24.777,10.415 21.949,7.585 16.447,13.087 10.945,7.585 8.117,10.415 13.618,15.917 8.116,21.419 10.946,24.248 16.447,18.746 21.948,24.248z"></path><title>Remove link.</title></g><g  event="link:options"><circle r="11" transform="translate(25)"></circle><path fill="white" transform="scale(.55) translate(29, -16)" d="M31.229,17.736c0.064-0.571,0.104-1.148,0.104-1.736s-0.04-1.166-0.104-1.737l-4.377-1.557c-0.218-0.716-0.504-1.401-0.851-2.05l1.993-4.192c-0.725-0.91-1.549-1.734-2.458-2.459l-4.193,1.994c-0.647-0.347-1.334-0.632-2.049-0.849l-1.558-4.378C17.165,0.708,16.588,0.667,16,0.667s-1.166,0.041-1.737,0.105L12.707,5.15c-0.716,0.217-1.401,0.502-2.05,0.849L6.464,4.005C5.554,4.73,4.73,5.554,4.005,6.464l1.994,4.192c-0.347,0.648-0.632,1.334-0.849,2.05l-4.378,1.557C0.708,14.834,0.667,15.412,0.667,16s0.041,1.165,0.105,1.736l4.378,1.558c0.217,0.715,0.502,1.401,0.849,2.049l-1.994,4.193c0.725,0.909,1.549,1.733,2.459,2.458l4.192-1.993c0.648,0.347,1.334,0.633,2.05,0.851l1.557,4.377c0.571,0.064,1.148,0.104,1.737,0.104c0.588,0,1.165-0.04,1.736-0.104l1.558-4.377c0.715-0.218,1.399-0.504,2.049-0.851l4.193,1.993c0.909-0.725,1.733-1.549,2.458-2.458l-1.993-4.193c0.347-0.647,0.633-1.334,0.851-2.049L31.229,17.736zM16,20.871c-2.69,0-4.872-2.182-4.872-4.871c0-2.69,2.182-4.872,4.872-4.872c2.689,0,4.871,2.182,4.871,4.872C20.871,18.689,18.689,20.871,16,20.871z"></path><title>Link options.</title></g></g></g></g><!--z-index:19--><g   id="j_446" ><path  stroke="#707070" d="M 1408 748 L 1708 868" id="v-6553" stroke-width="2" stroke-dasharray="30 30" fill="none" style="opacity: 1;"></path><path  fill="black" stroke="black" d="M 0 0 0 0" transform="matrix(0.9284766955435519,0.371390664708372,-0.371390664708372,0.9284766955435519,1408,748)"></path><path  fill="#707070" stroke="#707070" d="M 20 0 L 0 10 L 20 20 z" id="v-6555" transform="matrix(-0.928476707906966,-0.3713906337998342,0.3713906337998342,-0.928476707906966,1704.286070702009,877.2847451944114)" style="opacity: 1;"></path><path  d="M 1408 748 L 1708 868" id="v-6554" fill="none" style="pointer-events: visiblepainted; cursor: auto;"></path><g ><g id="v-6544"  label-idx="0" cursor="move" transform="matrix(1,0,0,1,1558,808)" style="opacity: 1;"><rect joint-selector="rect" id="v-6548" fill="#ffffff" rx="3" ry="3" pointer-events="none" width="205.0873565673828" height="57.34423828125" transform="matrix(1,0,0,1,-100.6,-28.7)"></rect><text joint-selector="text" id="v-6547" font-size="24px" xml:space="preserve" y="0.8em" fill="#707070" text-anchor="middle" pointer-events="none" font-family="Arial" font-weight="normal" transform="matrix(1,0,0,1,0,-25.7)"><tspan dy="0" >Processes delivery</tspan><tspan dy="1.2em" x="0" >payment</tspan></text></g><g id="v-6545"  label-idx="1" cursor="move" transform="matrix(1,0,0,1,1558,848.7999877929688)" style="opacity: 1;"><rect joint-selector="rect" id="v-6550" fill="#ffffff" rx="3" ry="3" pointer-events="none" width="97.97349548339844" height="19.029492378234863" transform="matrix(1,0,0,1,-48.2,-9.6)"></rect><text joint-selector="text" id="v-6549" font-size="17px" xml:space="preserve" y="0.8em" fill="#707070" text-anchor="middle" pointer-events="none" font-family="Arial" font-weight="normal" transform="matrix(1,0,0,1,0,-7.3)"><tspan dy="0" >[HTTPS API]</tspan></text></g><g id="v-6546"  label-idx="2" cursor="move" transform="matrix(1,0,0,1,1548,857.2000122070312)" style="opacity: 1;"><rect joint-selector="rect" id="v-6552" fill="#ffffff" rx="3" ry="3"  width="0" height="0" transform="matrix(1,0,0,1,0,0)" display="none"></rect><text joint-selector="text" id="v-6551" fill="#000000" font-size="14" text-anchor="middle" pointer-events="none"></text></g></g><g  display="none" style="display: none;"></g><g  id="v-6557" display="none"><g  id="v-6542"><path  end="source" d="M 26 0 L 0 13 L 26 26 z"></path></g><g  id="v-6543"><path  end="target" d="M 26 0 L 0 13 L 26 26 z"></path></g></g><g  id="v-6556" display="none"><g  id="v-6541" transform="translate(1445.1390676354104, 762.8556270541642) "><g  event="remove"><circle r="11"></circle><path transform="scale(.8) translate(-16, -16)" d="M24.778,21.419 19.276,15.917 24.777,10.415 21.949,7.585 16.447,13.087 10.945,7.585 8.117,10.415 13.618,15.917 8.116,21.419 10.946,24.248 16.447,18.746 21.948,24.248z"></path><title>Remove link.</title></g><g  event="link:options"><circle r="11" transform="translate(25)"></circle><path fill="white" transform="scale(.55) translate(29, -16)" d="M31.229,17.736c0.064-0.571,0.104-1.148,0.104-1.736s-0.04-1.166-0.104-1.737l-4.377-1.557c-0.218-0.716-0.504-1.401-0.851-2.05l1.993-4.192c-0.725-0.91-1.549-1.734-2.458-2.459l-4.193,1.994c-0.647-0.347-1.334-0.632-2.049-0.849l-1.558-4.378C17.165,0.708,16.588,0.667,16,0.667s-1.166,0.041-1.737,0.105L12.707,5.15c-0.716,0.217-1.401,0.502-2.05,0.849L6.464,4.005C5.554,4.73,4.73,5.554,4.005,6.464l1.994,4.192c-0.347,0.648-0.632,1.334-0.849,2.05l-4.378,1.557C0.708,14.834,0.667,15.412,0.667,16s0.041,1.165,0.105,1.736l4.378,1.558c0.217,0.715,0.502,1.401,0.849,2.049l-1.994,4.193c0.725,0.909,1.549,1.733,2.459,2.458l4.192-1.993c0.648,0.347,1.334,0.633,2.05,0.851l1.557,4.377c0.571,0.064,1.148,0.104,1.737,0.104c0.588,0,1.165-0.04,1.736-0.104l1.558-4.377c0.715-0.218,1.399-0.504,2.049-0.851l4.193,1.993c0.909-0.725,1.733-1.549,2.458-2.458l-1.993-4.193c0.347-0.647,0.633-1.334,0.851-2.049L31.229,17.736zM16,20.871c-2.69,0-4.872-2.182-4.872-4.871c0-2.69,2.182-4.872,4.872-4.872c2.689,0,4.871,2.182,4.871,4.872C20.871,18.689,18.689,20.871,16,20.871z"></path><title>Link options.</title></g></g></g></g><!--z-index:20--><g   id="j_447" ><path  stroke="#707070" d="M 608 473 L 958 585" id="v-6573" stroke-width="2" stroke-dasharray="30 30" fill="none" style="opacity: 1;"></path><path  fill="black" stroke="black" d="M 0 0 0 0" transform="matrix(0.9517086185867383,0.3070027773615775,-0.3070027773615775,0.9517086185867383,608,472.5161437988281)"></path><path  fill="#707070" stroke="#707070" d="M 20 0 L 0 10 L 20 20 z" id="v-6575" transform="matrix(-0.9517086390266825,-0.3070027139977427,0.3070027139977427,-0.9517086390266825,954.9299694065395,594.9364177294626)" style="opacity: 1;"></path><path  d="M 608 473 L 958 585" id="v-6574" fill="none" style="pointer-events: visiblepainted; cursor: auto;"></path><g ><g id="v-6564"  label-idx="0" cursor="move" transform="matrix(1,0,0,1,783,529)" style="opacity: 1;"><rect joint-selector="rect" id="v-6568" fill="#ffffff" rx="3" ry="3" pointer-events="none" width="179.4454803466797" height="86.14423751831055" transform="matrix(1,0,0,1,-88.6,-43.1)"></rect><text joint-selector="text" id="v-6567" font-size="24px" xml:space="preserve" y="0.8em" fill="#707070" text-anchor="middle" pointer-events="none" font-family="Arial" font-weight="normal" transform="matrix(1,0,0,1,0,-40.1)"><tspan dy="0" >Uses the system</tspan><tspan dy="1.2em" x="0" >via web/mobile</tspan><tspan dy="1.2em" x="0" >client</tspan></text></g><g id="v-6565"  label-idx="1" cursor="move" transform="matrix(1,0,0,1,783,584.2000122070312)" style="opacity: 1;"><rect joint-selector="rect" id="v-6570" fill="#ffffff" rx="3" ry="3" pointer-events="none" width="66.78817749023438" height="19.029492378234863" transform="matrix(1,0,0,1,-32.6,-9.6)"></rect><text joint-selector="text" id="v-6569" font-size="17px" xml:space="preserve" y="0.8em" fill="#707070" text-anchor="middle" pointer-events="none" font-family="Arial" font-weight="normal" transform="matrix(1,0,0,1,0,-7.3)"><tspan dy="0" >[HTTPS]</tspan></text></g><g id="v-6566"  label-idx="2" cursor="move" transform="matrix(1,0,0,1,773,592.5999755859375)" style="opacity: 1;"><rect joint-selector="rect" id="v-6572" fill="#ffffff" rx="3" ry="3"  width="0" height="0" transform="matrix(1,0,0,1,0,0)" display="none"></rect><text joint-selector="text" id="v-6571" fill="#000000" font-size="14" text-anchor="middle" pointer-events="none"></text></g></g><g  display="none" style="display: none;"></g><g  id="v-6577" display="none"><g  id="v-6562"><path  end="source" d="M 26 0 L 0 13 L 26 26 z"></path></g><g  id="v-6563"><path  end="target" d="M 26 0 L 0 13 L 26 26 z"></path></g></g><g  id="v-6576" display="none"><g  id="v-6561" transform="translate(646.096965887973, 485.19102908415135) "><g  event="remove"><circle r="11"></circle><path transform="scale(.8) translate(-16, -16)" d="M24.778,21.419 19.276,15.917 24.777,10.415 21.949,7.585 16.447,13.087 10.945,7.585 8.117,10.415 13.618,15.917 8.116,21.419 10.946,24.248 16.447,18.746 21.948,24.248z"></path><title>Remove link.</title></g><g  event="link:options"><circle r="11" transform="translate(25)"></circle><path fill="white" transform="scale(.55) translate(29, -16)" d="M31.229,17.736c0.064-0.571,0.104-1.148,0.104-1.736s-0.04-1.166-0.104-1.737l-4.377-1.557c-0.218-0.716-0.504-1.401-0.851-2.05l1.993-4.192c-0.725-0.91-1.549-1.734-2.458-2.459l-4.193,1.994c-0.647-0.347-1.334-0.632-2.049-0.849l-1.558-4.378C17.165,0.708,16.588,0.667,16,0.667s-1.166,0.041-1.737,0.105L12.707,5.15c-0.716,0.217-1.401,0.502-2.05,0.849L6.464,4.005C5.554,4.73,4.73,5.554,4.005,6.464l1.994,4.192c-0.347,0.648-0.632,1.334-0.849,2.05l-4.378,1.557C0.708,14.834,0.667,15.412,0.667,16s0.041,1.165,0.105,1.736l4.378,1.558c0.217,0.715,0.502,1.401,0.849,2.049l-1.994,4.193c0.725,0.909,1.549,1.733,2.459,2.458l4.192-1.993c0.648,0.347,1.334,0.633,2.05,0.851l1.557,4.377c0.571,0.064,1.148,0.104,1.737,0.104c0.588,0,1.165-0.04,1.736-0.104l1.558-4.377c0.715-0.218,1.399-0.504,2.049-0.851l4.193,1.993c0.909-0.725,1.733-1.549,2.458-2.458l-1.993-4.193c0.347-0.647,0.633-1.334,0.851-2.049L31.229,17.736zM16,20.871c-2.69,0-4.872-2.182-4.872-4.871c0-2.69,2.182-4.872,4.872-4.872c2.689,0,4.871,2.182,4.871,4.872C20.871,18.689,18.689,20.871,16,20.871z"></path><title>Link options.</title></g></g></g></g><!--z-index:21--><g   id="j_448" ><path  stroke="#707070" d="M 608 918 L 958 760" id="v-6593" stroke-width="2" stroke-dasharray="30 30" fill="none" style="opacity: 1;"></path><path  fill="black" stroke="black" d="M 0 0 0 0" transform="matrix(0.9113707027699888,-0.4115864941085127,0.4115864941085127,0.9113707027699888,608,917.6774291992188)"></path><path  fill="#707070" stroke="#707070" d="M 20 0 L 0 10 L 20 20 z" id="v-6595" transform="matrix(-0.9113705931578429,0.4115867368211976,-0.4115867368211976,-0.9113705931578429,962.1158648036965,768.726598328991)" style="opacity: 1;"></path><path  d="M 608 918 L 958 760" id="v-6594" fill="none" style="pointer-events: visiblepainted; cursor: auto;"></path><g ><g id="v-6584"  label-idx="0" cursor="move" transform="matrix(1,0,0,1,783,839)" style="opacity: 1;"><rect joint-selector="rect" id="v-6588" fill="#ffffff" rx="3" ry="3" pointer-events="none" width="150.47146606445312" height="86.14423751831055" transform="matrix(1,0,0,1,-74,-43.1)"></rect><text joint-selector="text" id="v-6587" font-size="24px" xml:space="preserve" y="0.8em" fill="#707070" text-anchor="middle" pointer-events="none" font-family="Arial" font-weight="normal" transform="matrix(1,0,0,1,0,-40.1)"><tspan dy="0" >Monitors</tspan><tspan dy="1.2em" x="0" >deliveries and</tspan><tspan dy="1.2em" x="0" >users</tspan></text></g><g id="v-6585"  label-idx="1" cursor="move" transform="matrix(1,0,0,1,783,894.2000122070312)" style="opacity: 1;"><rect joint-selector="rect" id="v-6590" fill="#ffffff" rx="3" ry="3" pointer-events="none" width="66.78817749023438" height="19.029492378234863" transform="matrix(1,0,0,1,-32.6,-9.6)"></rect><text joint-selector="text" id="v-6589" font-size="17px" xml:space="preserve" y="0.8em" fill="#707070" text-anchor="middle" pointer-events="none" font-family="Arial" font-weight="normal" transform="matrix(1,0,0,1,0,-7.3)"><tspan dy="0" >[HTTPS]</tspan></text></g><g id="v-6586"  label-idx="2" cursor="move" transform="matrix(1,0,0,1,773,902.5999755859375)" style="opacity: 1;"><rect joint-selector="rect" id="v-6592" fill="#ffffff" rx="3" ry="3"  width="0" height="0" transform="matrix(1,0,0,1,0,0)" display="none"></rect><text joint-selector="text" id="v-6591" fill="#000000" font-size="14" text-anchor="middle" pointer-events="none"></text></g></g><g  display="none" style="display: none;"></g><g  id="v-6597" display="none"><g  id="v-6582"><path  end="source" d="M 26 0 L 0 13 L 26 26 z"></path></g><g  id="v-6583"><path  end="target" d="M 26 0 L 0 13 L 26 26 z"></path></g></g><g  id="v-6596" display="none"><g  id="v-6581" transform="translate(644.4573443779865, 901.542113109366) "><g  event="remove"><circle r="11"></circle><path transform="scale(.8) translate(-16, -16)" d="M24.778,21.419 19.276,15.917 24.777,10.415 21.949,7.585 16.447,13.087 10.945,7.585 8.117,10.415 13.618,15.917 8.116,21.419 10.946,24.248 16.447,18.746 21.948,24.248z"></path><title>Remove link.</title></g><g  event="link:options"><circle r="11" transform="translate(25)"></circle><path fill="white" transform="scale(.55) translate(29, -16)" d="M31.229,17.736c0.064-0.571,0.104-1.148,0.104-1.736s-0.04-1.166-0.104-1.737l-4.377-1.557c-0.218-0.716-0.504-1.401-0.851-2.05l1.993-4.192c-0.725-0.91-1.549-1.734-2.458-2.459l-4.193,1.994c-0.647-0.347-1.334-0.632-2.049-0.849l-1.558-4.378C17.165,0.708,16.588,0.667,16,0.667s-1.166,0.041-1.737,0.105L12.707,5.15c-0.716,0.217-1.401,0.502-2.05,0.849L6.464,4.005C5.554,4.73,4.73,5.554,4.005,6.464l1.994,4.192c-0.347,0.648-0.632,1.334-0.849,2.05l-4.378,1.557C0.708,14.834,0.667,15.412,0.667,16s0.041,1.165,0.105,1.736l4.378,1.558c0.217,0.715,0.502,1.401,0.849,2.049l-1.994,4.193c0.725,0.909,1.549,1.733,2.459,2.458l4.192-1.993c0.648,0.347,1.334,0.633,2.05,0.851l1.557,4.377c0.571,0.064,1.148,0.104,1.737,0.104c0.588,0,1.165-0.04,1.736-0.104l1.558-4.377c0.715-0.218,1.399-0.504,2.049-0.851l4.193,1.993c0.909-0.725,1.733-1.549,2.458-2.458l-1.993-4.193c0.347-0.647,0.633-1.334,0.851-2.049L31.229,17.736zM16,20.871c-2.69,0-4.872-2.182-4.872-4.871c0-2.69,2.182-4.872,4.872-4.872c2.689,0,4.871,2.182,4.871,4.872C20.871,18.689,18.689,20.871,16,20.871z"></path><title>Link options.</title></g></g></g></g><!--z-index:22--></g><g ></g><g ></g><g ></g></g></svg>